/* XPM */
static char *c0665af86db7437ff8c8b9fa34c9e6aab09I4A9gXeYH4W2V[] = {
/* columns rows colors chars-per-pixel */
"65 55 233 2 ",
"   c #020001",
".  c #090000",
"X  c #00000B",
"o  c #140001",
"O  c #1B0101",
"+  c #14030D",
"@  c #1D030B",
"#  c #0A0015",
"$  c #150216",
"%  c #1A0417",
"&  c #220101",
"*  c #2C0A02",
"=  c #250909",
"-  c #370E00",
";  c #2D1000",
":  c #2C120C",
">  c #371608",
",  c #210B12",
"<  c #2C0D11",
"1  c #220419",
"2  c #2D1412",
"3  c #26121A",
"4  c #2B1519",
"5  c #311512",
"6  c #391B16",
"7  c #351B1A",
"8  c #37221B",
"9  c #3A221C",
"0  c #140128",
"q  c #130B2D",
"w  c #030034",
"e  c #0A0437",
"r  c #180635",
"t  c #280B2C",
"y  c #2D1623",
"u  c #351A28",
"i  c #231232",
"p  c #281936",
"a  c #321B33",
"s  c #38242A",
"d  c #3B252D",
"f  c #2E213B",
"g  c #362134",
"h  c #3C2733",
"j  c #3D2A34",
"k  c #421F0A",
"l  c #4A2208",
"z  c #572E09",
"x  c #452519",
"c  c #562E14",
"v  c #5B3414",
"b  c #64370E",
"n  c #653915",
"m  c #452B29",
"M  c #512F20",
"N  c #4A3129",
"B  c #4C322B",
"V  c #593821",
"C  c #53362D",
"Z  c #55392E",
"A  c #5A3B2A",
"S  c #412B33",
"D  c #432936",
"F  c #4B3637",
"G  c #533B32",
"H  c #543938",
"J  c #653D21",
"K  c #6D4718",
"L  c #764815",
"P  c #7C4D1A",
"I  c #7B501C",
"U  c #5A4338",
"Y  c #684628",
"T  c #764B24",
"R  c #7D5324",
"E  c #725128",
"W  c #5B4A47",
"Q  c #5E5155",
"!  c #6A5146",
"~  c #675757",
"^  c #76635C",
"/  c #756761",
"(  c #7E7167",
")  c #865315",
"_  c #8A5615",
"`  c #8E5B16",
"'  c #8B5B1C",
"]  c #925C18",
"[  c #AE5600",
"{  c #B25D00",
"}  c #8D641A",
"|  c #96641A",
" . c #9B6419",
".. c #9D691B",
"X. c #9B7A1C",
"o. c #AB6800",
"O. c #B66500",
"+. c #B56800",
"@. c #BB6D00",
"#. c #BC7200",
"$. c #BB7B06",
"%. c #BD7D0D",
"&. c #A86C16",
"*. c #A26C1B",
"=. c #B26F13",
"-. c #AD7215",
";. c #A77718",
":. c #AC721A",
">. c #B47515",
",. c #B77916",
"<. c #BD7C12",
"1. c #B3771C",
"2. c #BB7B1B",
"3. c #845622",
"4. c #845A23",
"5. c #8C5D24",
"6. c #866323",
"7. c #966422",
"8. c #9C7734",
"9. c #A26B22",
"0. c #B27725",
"q. c #C27700",
"w. c #C37C03",
"e. c #C27F0D",
"r. c #C27E11",
"t. c #C17918",
"y. c #85766D",
"u. c #847875",
"i. c #BE810C",
"p. c #BB8516",
"a. c #B29014",
"s. c #B3951B",
"d. c #BC8E21",
"f. c #C48107",
"g. c #CC8607",
"h. c #C4820E",
"j. c #CB850C",
"k. c #CE880B",
"l. c #D58B05",
"z. c #D58807",
"x. c #D2840C",
"c. c #D38B0C",
"v. c #DA8D0C",
"b. c #DC9106",
"n. c #DB910B",
"m. c #C48211",
"M. c #CB8513",
"N. c #C7881B",
"B. c #D38B12",
"V. c #D68C14",
"C. c #DC9513",
"Z. c #DA9516",
"A. c #E89507",
"S. c #EB9A05",
"D. c #E2950C",
"F. c #EB950B",
"G. c #E5990C",
"H. c #EA9C0C",
"J. c #F79E09",
"K. c #E69813",
"L. c #D5AE12",
"P. c #F5A508",
"I. c #F0AE12",
"U. c #F7A619",
"Y. c #C09B25",
"T. c #C7933C",
"R. c #CEAB20",
"E. c #DFCF13",
"W. c #E7C50A",
"Q. c #FCC700",
"!. c #FBCD01",
"~. c #E9D309",
"^. c #FDD100",
"/. c #FFDB00",
"(. c #FDD509",
"). c #E3C314",
"_. c #F2D517",
"`. c #FFE402",
"'. c #FFEB01",
"]. c #FAEA0D",
"[. c #FFF600",
"{. c #FFFF03",
"}. c #FFFE0F",
"|. c #FFFB17",
" X c #8E8178",
".X c #98887B",
"XX c #C7964A",
"oX c #CA9551",
"OX c #CEA455",
"+X c #D2A65C",
"@X c #D5A964",
"#X c #8F858D",
"$X c #968A87",
"%X c #9A918C",
"&X c #A4988C",
"*X c #A79C96",
"=X c #ACA28B",
"-X c #ADA59D",
";X c #B3AA9A",
":X c #B4ABA5",
">X c #BBB0A6",
",X c #BBB5AB",
"<X c #C5BDB5",
"1X c #DEC594",
"2X c #E1C490",
"3X c #CCC5BB",
"4X c #E6D3AF",
"5X c #CBC5C3",
"6X c #D3CDC6",
"7X c #D8D4CC",
"8X c #D8D4D1",
"9X c #DCD9D5",
"0X c #DEDDDB",
"qX c #EADCC3",
"wX c #E1DED4",
"eX c #E0DDD9",
"rX c #DFE0DB",
"tX c #EBE2CC",
"yX c #E3E1DA",
"uX c #EAE7DC",
"iX c #F1E9D6",
"pX c #DFDFE0",
"aX c #E5E5E5",
"sX c #EAE7E4",
"dX c #EDEAE4",
"fX c #EBEBEB",
"gX c #F3F3EC",
"hX c #EDEFF0",
"jX c #F4F4F4",
"kX c #F6F7F6",
"lX c #FBFBF5",
"zX c #F7F8F9",
"xX c #FDFEFE",
/* pixels */
"xXaXaXzXxXxXfXaXfXxXxXhXaXaXxXxXxXaXaXjXxXxXaXaXfXxXxXzXaXaXxXxXjXaXaXjXxXxXaXaXfXxXxXjXaXaXxXxXxXaXaXzXxXxXfXaXfXxXxXjXaXaXxXxXxX",
"fXxXxXhXaXfXxXxXzXfXsXzXxXxXfXfXfXxXxXjXfXsXxXxXzXfXsXjXxXxXaXfXjXxXxXjXaXsXxXxXxXsXaXjXxXxXfXsXfXxXxXjXaXfXzXxXxXsXsXjXxXxXfXfXgX",
"fXxXxXfXaXaXxXxXxXaXaXzXxXxXfXaXfXxXxXfXaXaXxXxXzXaXaXjXxXxXaXaXfXxXxXjXaXaXxXxXzXaXaXzXxXxXfXaXfXxXxXjXaXaXzXxXxXaXaXjXxXxXfXaXhX",
"fXxXxXjXfXfXxXxXzXsXfXjXxXzXfXfXfXxXxXjXfXfXzXxXzXfXfXjXzXxXfXfXhXxXxXjXfXfXxXxXzXfXsXzXxXxXfXfXfXzXxXxXxXxXxXxXxXfXfXzXxXxXfXfXhX",
"xXaXaXxXxXxXfXaXfXxXxXhXaXaXxXxXxXaXsXjXxXxXfXaXhXxXxXhXsXaXxXxXjXfXdXjXxXxXfXaXfXxXxXjXaXsXxXxXxXxXxX9X$Xy.u..X6XxXxXzXaXaXzXxXzX",
"xXsXaXzXxXxXfXhXxXxXxXxXxXzXxXxXzXaXsXzXxXxXfXsXhXxXxXjXsXaXxXxXzXaXaXjXxXxXaXaXfXxXxXzXaXfXxXxXxXy.* . @ 2 < @ . o y.xXxXaXxXxXzX",
"zXfXfXjXzXxXxXdX-Xu./ / %X9XxXxXxXfXfXjXxXxXfXfXjXxXlXjXfXfXkXxXzXfXfXzXxXxXfXfXfXxXxXjXsXjXxX:X  * n 0.Z.G.K.K.N.P & O gXxXjXxXlX",
"fXxXxXfXhXxX-X5 & > l l * & H -XxXxXxXhXaXaXxXxXzXaXaXjXxXxX0XaXfXxXxXfXaXaXxXxXzXaXaXjXxXxXy.  R N.K.l.h.h.e.f.k.K.N.x O 7XxX0XhX",
"fXxXxXzXxXU . P M.B.B.M.N.:.n o W 3XxXfXaXaXxXxXzXaXfXzXxXxXzXxXxXxXxXxXfXaXxXxXzXaXyXzXxX%X. ..K.k.w.%.h.h.h.h.%.h.z.Z.x = dXzXfX",
"jXjXfXxXW @ 1.n.k.j.j.f.j.c.n.*.4 < .XxXlXjXjXxXxXxXxXlXdX9XuX6X6XwXyXlXxXxXxXxXjXzXzXxXfX4 P H.f.%.h.h.h.h.h.h.e.h.h.x.Z.2 ( xXzX",
"xX0XxX;X  ..A.f.h.i.h.h.h.%.h.v.H.m   .XxXxXxX,X^ Q d 2 % % % $ $ $ % 4 S W ( 7XxXxXxXxX-XO i.h.e.m.h.h.h.h.e.e.%.%.e.i.D.` 4 fXxX",
"zXxX7X  3.P.%.e.h.h.i.h.h.i.h.h.f.P.6.O ;XG   o 6 v L ` &.-.-.r.<.>.*._ K c 6 .   8 8XxXO T v.h.e.h.h.h.h.h.h.i.j.z.v.v.B.U.& %XxX",
"jXxXu.6 P.z.k.v.j.e.e.h.h.e.%.i.M.b.N.F = x 6.N.v.v.C.n.v.z.l.j.k.c.z.n.D.n.V.0.4.x O G u ..H.f.h.h.e.h.e.e.h.v.h.0.E s u V M G xX",
"jXjXF L ,.4.3.7.i.D.j.%.h.e.f.b.M.E q J 7.n.K.g.f.h.e.h.e.e.h.h.h.h.h.%.h.f.j.k.D.K.:.n j F ..D.g.%.h.h.e.h.v.>.S 0 d Y 6.E h > gX",
"xX7Xx y i t a r a R M.b.%.h.D. .u f ..c.v.e.r.r.e.h.h.h.h.m.h.h.h.h.h.h.e.h.h.h.e.f.z.B.2.Y q Y M.F.%.e.m.n...p i s.~.(./.].X.= fX",
"xX>Xo 8.~.W.W.).R w S <.A.H.R r U V.v.j.e.r.f.h.h.h.h.h.h.h.m.h.h.h.h.h.h.h.h.h.h.h.%.f.k.v.0.i f 2.F.$.M.M.i t ].'././.^.'.Z.< kX",
"xX#X- {././././.{._.u e V.Y r 7.S.f.e.h.h.h.h.h.h.h.m.h.m.h.h.h.m.h.m.h.h.m.j.m.h.h.h.e.e.m.z.U.Y w 7.F.H.i d |./.!.!.^.^./.a.: kX",
"xXu.l `.^.^.!.!.!.'.].Y a p 7.F.e.p.e.h.h.h.h.h.h.m.j.m.h.h.m.h.h.m.j.h.h.h.r.h.h.h.h.h.h.f.%.e.H...e 7.5.r ).'.!.^.^.^.^.`.a.= zX",
"xX#Xl /./.^.^.!./.Q.[.a.p 3.G.f.e.h.e.h.h.h.h.h.j.r.h.h.m.j.m.h.h.h.m.h.h.m.h.h.h.h.m.h.h.e.h.%.f.G.9.p S 6.`.^.^.^./.^.^.`.| y xX",
"xX:XO ].^.^.^.^.^.'.L.e R H.e.e.e.j.m.h.h.h.h.h.h.h.m.h.h.h.m.h.m.h.h.h.m.j.m.h.m.j.h.h.h.f.h.h.j.w.S.6.r s.[.!.!.^.!.!.^.].> ~ xX",
"xX3X  )./.!.^.!.!.'.B S D.h.e.e.h.m.m.h.m.h.j.m.h.m.j.m.m.m.h.m.j.m.h.h.h.h.m.h.h.h.h.h.j.m.h.h.e.e.e.J.C m ~./.!.!.^.!.'.R.X <XxX",
"xX9X3 } {.Q.^.!.[.s.w :.z.r.h.h.h.j.h.h.h.h.h.m.h.h.m.h.h.j.h.h.m.h.m.h.h.m.j.m.h.m.m.h.m.h.m.h.r.e.r.e.C.w 6.{.!.^.!.^.|.@ m xXxX",
"xXxX.XX I.[.!./.|.w 5.H.h.h.e.e.h.h.m.h.j.m.h.m.m.h.m.h.h.h.j.r.h.m.h.h.h.h.j.h.h.h.j.m.h.h.m.j.h.e.f.h.v.p.w Y.'.!./.|.1 @ 7XxXzX",
"jXxXzXm # E.'.{.V h c.j.e.h.h.h.h.h.h.h.m.h.h.h.h.m.j.h.h.m.m.h.h.r.j.h.h.m.m.h.m.h.m.h.m.h.h.m.h.h.m.e.f.B.Y 0 }.'._.K o .XxXzXkX",
"fXxXxXuX7 . ;.d.e 1.n.<.e.h.h.h.h.m.h.h.h.m.j.h.m.h.m.h.m.h.m.h.m.j.h.h.h.h.h.m.h.m.h.m.j.m.h.h.h.m.e.h.e.l.<.r 4.a.& + &XxXjX0XfX",
"fXxXxXxXyXy.u u B P.%.m.e.m.h.h.h.h.m.h.h.h.m.h.h.h.m.j.j.m.h.h.h.m.m.m.m.h.m.j.h.m.h.h.h.h.h.m.h.h.m.h.m.h.D.T g t ^ 6XxXxXfXaXfX",
"zXfXfXkXxXxX,X3 ..v.e.f.h.j.h.h.j.h.h.h.h.m.h.M.h.m.h.m.h.h.h.h.m.h.m.j.m.h.h.h.j.m.m.h.m.h.m.r.h.m.h.h.h.h.x.B.$ &XxXxXfXfXzXzXkX",
"xXaXsXzXxXxX$X2 D.e.e.h.h.m.h.m.m.m.h.h.h.h.h.h.h.h.h.h.h.m.h.m.h.h.h.h.j.h.h.m.h.h.h.h.h.h.h.j.h.h.h.m.h.i.f.P.m W xXzXaXaXxXxXzX",
"xXaXaXxXxXxXF L n.e.e.h.h.h.m.h.m.h.m.h.m.h.h.h.j.m.m.h.h.h.j.m.m.j.h.h.r.h.h.j.m.h.j.h.m.h.m.j.h.m.h.h.m.h.%.z.*.y yXxXfXsXzXxXzX",
"fXxXxXfXxX9X@ :.k.e.h.h.m.h.j.h.h.h.j.h.h.h.m.h.h.m.h.m.h.m.h.h.h.m.h.m.h.m.m.m.h.h.m.m.h.h.h.h.m.j.h.m.j.h.h.h.c.2 %XxXzXxXhXfXjX",
"fXxXxXfXxX:X: <.j.h.m.m.j.m.h.h.m.h.h.m.m.j.m.h.h.h.h.j.j.m.h.m.m.h.h.h.h.h.h.h.j.<.h.h.h.h.h.h.m.h.h.h.m.h.m.%.D.z Q xXxXxXfXaXhX",
"fXxXxXjXxX^ c j.f.m.h.h.m.h.h.h.h.h.h.h.h.h.m.h.h.m.h.m.m.h.h.h.h.h.m.j.m.h.m.h.m.h.h.h.h.h.h.h.h.m.j.m.h.h.h.m.l.) h gXxXxXfXfXfX",
"xXaXaXxXxXG K c.h.m.h.m.h.h.h.h.e.e.f.h.m.h.h.h.m.h.h.h.m.j.m.j.h.m.h.m.h.h.h.h.f.h.e.h.e.h.h.h.h.m.h.h.h.j.m.h.c...3 sXjXaXzXxXxX",
"xXaXaXxXxX* ] B.h.h.h.h.h.h.h.h.h.h.m.e.h.h.h.h.h.h.h.h.m.h.m.m.h.h.h.h.h.h.h.h.h.%.j.v.v.j.h.i.e.h.h.h.m.h.m.e.j.,.= 9XzXaXxXxXzX",
"zXfXaXxXxXO *.c.h.h.h.h.h.h.h.e.k.c.c.e.h.h.h.h.h.h.m.h.e.w.q.w.e.h.h.m.h.h.h.h.h.c.2.T T :.B.i.e.m.m.h.h.h.h.e.g.>.: 8XzXfXlXzXzX",
"fXxXxXxXyXO >.c.h.h.h.h.h.h.h.v.&.5.-.V.f.i.h.h.h.h.#.+.+.#.$.$.@.+.@.f.h.e.e.e.k.,.a h h a } v.h.m.j.h.h.m.h.e.j.<.: 8XxXxXfXaXfX",
"fXxXxXxX7XO ,.k.h.f.m.h.h.f.B.3.m m S 5.v.m.m.h.f.[ T.2X4XqXiXtX4X4X+XO.@.m.<.j.M.Y N Z A F s Z.f.h.h.h.m.h.h.h.j.>.2 9XxXxXfXaXgX",
"jXhXhXxXjXo :.z.%.h.h.h.h.j.:.h F C B j -.M.m.f.[ 1XxXxXxXxXxXxXxXxXxXgXN.O.m.f.M.Y B G C A a <.j.h.h.m.h.h.h.e.j.>.8 aXxXjXjXjXjX",
"xXaXaXxXxXO  .l.h.h.m.h.m.g.5.S Z C G S 5.z.f.{ 4XxXxXxXxX/ & *XxXxXxXxXxXoX@.m.l.R S Z C G p B.f.m.m.h.m.m.h.h.j.-.7 sXjXaXxXxXzX",
"xXaXaXxXxX8 P c.h.m.h.h.m.c.' j A Z Z j ..c.#.OXxXxXxXxX X& M & -XxXxXxXxXxX%.q.M.c.A S D S } v.e.e.h.h.h.j.m.h.k.&.y sXjXsXzXxXzX",
"jXzXzXjXxX~ v c.f.h.h.m.h.j.<.B j B j C h.f.#.tXxXxXxXxX^ > H x %XxXxXxXxXxXiX{ r.x.B.} ' 2.n.%.h.h.h.h.h.h.h.e.b.L F jXxXzXjXhXjX",
"fXxXxXfXxX%Xk m.h.e.h.h.h.h.c.<.R A Y ,.c.w.<.xXxXxXxXxX5XN M 9 5XxXxXxXxXzXxXo.w.h.h.v.z.k.h.i.h.h.h.h.h.i.h.h.C.> u.xXxXxXfXaXhX",
"fXxXxXfXxX5X* 2.j.e.h.h.h.e.h.j.c.h.j.x.%.w.t.xXxXxXxXxXxXV - > x 8XxXxXxXxXxX$.#.h.h.h.h.e.i.h.h.h.h.h.h.h.m.j.<.3 ,XxXxXxXfXaXgX",
"zXfXsXzXxXeX+ -.z.h.e.e.h.h.e.i.h.h.f.h.h.w.<.xXxXzXxXxX^   0X*X  & :XxXzXxXxXo.q.h.h.e.i.h.h.h.h.h.h.h.h.h.%.J.K u xXxXfXfXxXxXzX",
"xXaXaXzXxXxX/ 5 H.e.%.h.h.h.m.h.h.h.h.m.h.f.#.4XxXxXxX*   .XxXxXrX;   9XxXxXxX[ m.h.h.h.h.m.h.h.h.i.m.e.e.%.z.Z.X =XxXhXaXaXzXxXzX",
"zXsXfXzXxXxX,X@ 2.v.%.h.f.h.h.h.m.h.m.j.h.h.#.T.xXxXxXs ^ xXxXxXxXsX! xXxXxXXX#.h.h.m.h.j.h.m.h.h.h.h.h.h.j.Z.x 9 xXzXjXfXfXjXxXzX",
"fXxXxXjXaXjXxXH 4 H.j.%.r.h.m.h.h.h.h.m.h.h.e.O.OXiXxXxXxXxXxXxXxXxXxXxXiXOXO.j.h.h.h.h.m.h.h.h.h.f.e.%.g.G.K   yXlXaXzXxXxXfXdXgX",
"fXxXxXfXaXaXxX9Xo n C.l.e.h.e.m.m.j.h.h.h.h.h.h.#.r.oXOX@X@X+XOX+X@X@XoXN.@.f.r.f.h.m.h.h.h.h.h.h.e.%.v.C.V o >XxXaXaXjXxXxXfXaXhX",
"jXzXzXjXfXjXjXxXgX  V K.b.%.h.h.h.h.h.m.h.h.h.h.h.q.#.#.#.#.@.#.#.#.#.#.#.h.h.h.h.h.h.h.h.h.h.h.e.f.H.N.7 . ,XxXzXfXfXjXzXxXhXfXhX",
"xXaXyXzXxXxXfX0XxXgXo + 1.J.h.h.h.r.e.h.h.h.h.e.h.i.r.h.h.e.h.f.h.h.e.h.h.h.h.e.e.h.h.h.h.f.h.j.A.Z.T . > xXxXaXfXxXxXjXaXaXxXxXxX",
"xXsXaXzXxXxXfXaXfXxXxX! # c N.l.c.j.f.h.h.%.e.h.h.e.h.h.h.e.i.h.e.i.h.h.f.h.e.e.h.h.j.k.z.c.j.1.v = %  XxXxXfXaXfXxXxXjXsXaXxXxXlX",
"jXhXjXjXzXjXjXjXjXjXxXxX=Xs , v *.M.V.k.c.c.c.c.z.c.c.k.c.c.c.c.c.c.c.c.V.c.c.c.k.c.h.2._ b x % H y.yXxXjXzXjXjXjXjXzXjXjXgXjXjXjX",
"fXxXxXfXaXfXxXxXzXpXaXlXxXlX&XW O & l b L | ` _ ` ` }  . . . .] ` ` _ _ ) I P K b z - O s ~  X<XxXxXxXjXaXaXzXxXxXaXaXjXxXxXfXaXhX",
"fXxXxXfXaXsXxXxXzXaXaXzXxXxXxXhX9X,Xu.W 8 5 8 8 7 5 5 5 > : > : 2 7 8 8 8 8 m U Q ^ #X6XdXxXxXxXjXxXxXjXaXaXxXxXxXaXaXjXxXxXfXaXhX",
"zXfXsXzXxXzXhXfXhXxXjXjXfXfXxXxXxXxXxXxXxXxXxXzXxXxXxXjXhXhXzXxXzXjXxXxXxXxXxXxXxXxXxXxXjXjXxXzXjXfXfXjXxXxXfXfXfXxXxXjXfXfXzXxXzX"
};
