/* XPM */
static char *_a2b8bba9586418f816595be66728eefRGd6whlsYMy5OH1p[] = {
/* columns rows colors chars-per-pixel */
"80 65 208 2 ",
"   c #300F03",
".  c #35150A",
"X  c #351815",
"o  c #361B14",
"O  c #391D1D",
"+  c #3E2215",
"@  c #3C221D",
"#  c #391D25",
"$  c #3D2222",
"%  c #3D252B",
"&  c #3C292F",
"*  c #3B2634",
"=  c #43251D",
"-  c #45291D",
";  c #482A1C",
":  c #46301F",
">  c #56371E",
",  c #623E1D",
"<  c #422524",
"1  c #452A23",
"2  c #4B2C24",
"3  c #412529",
"4  c #442B2C",
"5  c #4A2E2A",
"6  c #4D3226",
"7  c #4C332C",
"8  c #4F3829",
"9  c #533425",
"0  c #593725",
"q  c #563926",
"w  c #5B3C23",
"e  c #52352B",
"r  c #55392D",
"t  c #5C3C2A",
"y  c #452833",
"u  c #432C33",
"i  c #4B3332",
"p  c #493334",
"a  c #523632",
"s  c #553A32",
"d  c #583C36",
"f  c #623E25",
"g  c #6B471E",
"h  c #744B1E",
"j  c #794D1D",
"k  c #78551B",
"l  c #5E4226",
"z  c #584237",
"x  c #5A4436",
"c  c #5B443A",
"v  c #644224",
"b  c #6C4524",
"n  c #6C4925",
"m  c #64422B",
"M  c #6A4529",
"N  c #744B24",
"B  c #764C24",
"V  c #755122",
"C  c #7C5225",
"Z  c #7A5528",
"A  c #614C3D",
"S  c #66513D",
"D  c #5E4A41",
"F  c #624C43",
"G  c #695344",
"H  c #675349",
"J  c #69544A",
"K  c #6D5A4C",
"L  c #715E4D",
"P  c #6F5752",
"I  c #735E55",
"U  c #746255",
"Y  c #786659",
"T  c #7C6B5C",
"R  c #7D6E61",
"E  c #84581C",
"W  c #8B5C1D",
"Q  c #8A671A",
"!  c #94631D",
"~  c #9A661C",
"^  c #9C681B",
"/  c #9B771C",
"(  c #B96E00",
")  c #B77400",
"_  c #BD7300",
"`  c #BD7905",
"'  c #BB7A0B",
"]  c #A56C19",
"[  c #A46D1B",
"{  c #AC741D",
"}  c #A4781E",
"|  c #B37615",
" . c #BC7D15",
".. c #B1751C",
"X. c #B47A1D",
"o. c #BB7E1B",
"O. c #825623",
"+. c #875A23",
"@. c #8A6026",
"#. c #946423",
"$. c #9B6921",
"%. c #A26C22",
"&. c #AB7220",
"*. c #B27921",
"=. c #C07700",
"-. c #C37B03",
";. c #C47E0B",
":. c #C27F13",
">. c #C47E16",
",. c #816E62",
"<. c #857566",
"1. c #857569",
"2. c #8B7B6E",
"3. c #A7841B",
"4. c #BE8112",
"5. c #BD821B",
"6. c #B18D1D",
"7. c #BB931D",
"8. c #BE8829",
"9. c #B99121",
"0. c #C98206",
"q. c #C5820F",
"w. c #CB840D",
"e. c #CD880D",
"r. c #D1870D",
"t. c #D28B0D",
"y. c #C48111",
"u. c #CB8512",
"i. c #CD8912",
"p. c #C3841A",
"a. c #C9861A",
"s. c #D28B12",
"d. c #D48A15",
"f. c #D69115",
"g. c #E39617",
"h. c #C8A41B",
"j. c #D3AF18",
"k. c #DDB71B",
"l. c #E3BC18",
"z. c #C59F20",
"x. c #C68F3A",
"c. c #C79338",
"v. c #CEA823",
"b. c #FCCF02",
"n. c #F5CF08",
"m. c #FDD200",
"M. c #FFDC03",
"N. c #F7D208",
"B. c #FFDB0B",
"V. c #EAC413",
"C. c #F1C915",
"Z. c #FDD614",
"A. c #FEDA16",
"S. c #FFE201",
"D. c #FFE70B",
"F. c #FFEA0C",
"G. c #FFE611",
"H. c #8E8075",
"J. c #928477",
"K. c #CA9C49",
"L. c #C8A14F",
"P. c #D2A965",
"I. c #D9B677",
"U. c #998B82",
"Y. c #A29589",
"T. c #A2968A",
"R. c #A79B92",
"E. c #ACA297",
"W. c #B1A69C",
"Q. c #B3AA9F",
"!. c #B5ACA2",
"~. c #B9AEA6",
"^. c #BBB3A7",
"/. c #BCB4AD",
"(. c #C1B8AD",
"). c #C4BCB3",
"_. c #C3BBB9",
"`. c #DFC695",
"'. c #CBC4BC",
"]. c #E4CFA6",
"[. c #EBDBBB",
"{. c #CEC9C2",
"}. c #D2CCC4",
"|. c #D2CEC9",
" X c #D8D4CD",
".X c #D9D5CE",
"XX c #DCDAD4",
"oX c #E6DECE",
"OX c #F0E7CE",
"+X c #E4E2DC",
"@X c #F4EED9",
"#X c #E7E6E6",
"$X c #E8E5E1",
"%X c #EBEAE5",
"&X c #ECECEB",
"*X c #F1EFEA",
"=X c #EFF0EF",
"-X c #F8F4E6",
";X c #F2F1EE",
":X c #EFEFF0",
">X c #EFF0F0",
",X c #F4F4F4",
"<X c #F7F7F7",
"1X c #F9FAF6",
"2X c #F7F9FA",
"3X c #F9F9F9",
"4X c #FBFBFB",
"5X c #FDFDFD",
/* pixels */
"5X%X#X&X5X5X5X,X%X#X:X5X5X5X%X&X%X2X5X5X3X%X%X&X5X5X5X&X%X&X,X4X5X5X%X&X#X4X5X5X&X%X&X>X5X5X5X#X%X#X5X5X5X,X#X%X:X5X4X5X&X#X#X4X5X5X4X#X#X:X5X5X5X&X%X&X,X5X5X3X",
",X3X3X2X:X:X,X,X3X4X<X,X,X:X2X4X2X,X:X:X,X3X5X3X>X>X,X3X3X5X,X,X&X,X3X5X3X,X#X,X,X5X5X,X&X,X,X4X4X2X>X,X>X,X5X5X,X:X:X>X4X4X4X,X>X>X,X3X3X2X&X:X,X<X3X4X,X:X,X,X",
",X5X5X5X>X&X#X<X5X5X3X&X&X:X5X5X5X,X&X&X,X5X5X5X#X&X%X4X5X5X,X&X&X:X5X5X5X#X&X&X5X5X5X3X%X&X&X5X5X5X&X&X&X<X5X5X5X&X%X&X5X5X5X,X&X&X,X5X5X5X&X&X&X3X5X5X,X&X%X,X",
"&X5X5X5X&X&X%X<X5X5X3X%X%X&X5X5X4X,X&X%X>X5X5X5X%X&X&X4X5X5X,X%X&X&X5X5X5X#X,X%X3X5X5X,X&X&X&X5X5X5X&X%X%X3X5X5X4X&X&X&X5X5X5X,X%X%X,X5X5X5X&X&X%X5X5X5X<X&X&X&X",
",X,X3X<X,X,X,X<X<X3X<X<X,X<X<X<X,X,X,X,X,X,X3X1X,X>X2X,X3X,X,X,X,X,X<X<X2X,X,X,X<X<X<X,X,X,X,X1X3X3X,X,X,X,X<X<X3X,X,X1X2X<X5X5X5X5X5X5X5X5X3X,X<X<X,X3X2X>X,X,X",
"5X&X&X&X5X5X5X,X%X&X&X5X5X5X&X%X%X3X5X5X3X&X%X&X5X5X5X&X&X%X2X5X5X4X#X&X#X5X5X5X:X%X&X,X5X5X5X&X&X#X5X5X5X3X#X&X&X5X5X5X2X,XXXW.2.I Y Y 2.E.+X4X5X:X&X#X<X5X5X4X",
"3X&X&X&X5X5X5X,X&X:X5X5X5X5X4X2X,X3X5X5X,X&X&X&X5X5X5X&X&X%X,X5X5X4X&X&X%X5X5X5X&X&X%X,X5X5X5X%X&X%X4X5X5X3X%X&X,X3X4X5X!.J 1 o @ 2 2 1 = o @ K /.5X,X%X,X5X5X4X",
"3X&X&X&X4X5X5X<X2X#X'.~.T.T.E._.+X5X5X5X3X#X&X;X5X5X5X,X&X&X3X5X5X4X&X&X&X5X5X5X,X&X&X,X5X5X5X&X&X&X4X5X5X,X&X&X,X5X).z = 6 b %.X.i.p.a.*.[ h 5 1 Y >X,X,X5X5X4X",
",X5X5X5X&X&X,X5X!.s o o o # @ O 7 U /.5X4X5X5X5X%X&X&X4X5X5X,X&X&X&X5X5X5X%X#X&X2X5X5X3X&X&X&X5X5X5X&X&X%X,X5X5X5XJ.@ 1 O. .d.w.0.q.q.q.q.w.s.5.N O K 5X5X#X%X:X",
"&X5X5X5X&X,XXXS O w W [ *.&.$.W b 5 $ A |.5X5X5X&X&X&X4X5X5X,X&X&X>X5X5X5X%X,X#X,X5X5X3X&X&X&X5X5X4X:X&X&X3X5X5X<.@ v o.s.w.q.q.q.q.q.q.q.q.y.0.i.+.- s ;X,X&X,X",
"&X5X5X5X2X.Xe $ C p.t.w.w.w.e.i.s. .C % 2 <.5X5X#X#X&X4X5X5X<X%X=X,X5X5X5X2X3X4X5X5X5X5X&X&X&X5X5X5X&X&X%X,X5X}.o M i.u.4.0.q.q.q.q.q.q.q.q.y.q.q.s.+.@ T 5X%X:X",
"3X,X&X,X2Xz 1 %.t.w.y.;.q.;.q.q.q.w.t.^ t $ x }.5X3X4X,X4X5X3X1X+X.X'.).~.(.W.R.!.^./.}.+X*X5X4X5X,X4X4X4X<X,XF 6 *.w.0.q.q.q.q.q.q.q.q.0.y.q.q.;.w.i.V 3 '.5X1X",
"3X&X&X5XT 3 W i.0.q.q.q.q.q.q.q.4.;.0.e.y.N 3 = XX5X5X5X/.H.K F s 1 < @ O $ O $ # @ $ 1 i x K 1.!.XX5X5X5X5X).1 n w.4.y.q.q.q.y.q.q.q.;.y.;.q.q.y.q.w.{ < Y 5X5X",
"5X%X3XT.o N i.q.q.' q.q.y.q.q.q.q.q.q.q.q.s.~ 5 s ).L + o - q v N k W ! ~ ~ [ [ [ ^ W E h v 9 1 O o 8 J.+X5XK 1 [ w.q.;.q.q.q.q.q.q.q.q.y.y.0.e.s.i.s.g.N . *X5X",
"<X3X3Xc 9 y.w.q.q.q.q.q.0.4.q.q.q.q.q.q.p.0.f.Z 9 1 3 w #...4.p.i.i.s.w.w.i.w.e.w.i.e.i.s.w.y.X.$.V 1 @ 7 Y 7 > f.q.q.q.q.q.q.q.q.q.y.0.w.e.d.&.+.N N O.N < Y.5X",
"&X5X/.3 #.d. . . .i.i.q.q.q.q.q.q.q.q.q.t.X.n 4 e N o.f.e.u.0.q.0.:.q.0.w.0.q.q.q.q.q.0.q.q.y.u.i.d.d.[ n 5 i i &.i.0.q.y.q.q.q.q.q.:.i.y.Z e * % 3 3 $ 7 e A ,X",
">X5X2.1 g v q e r M W p.r.y.y.q.q.4.e.p.N 7 4 N 5.e.w.y.q.q.q.q.4.q.q.y.q.4.q.q.q.q.q.q.q.q.q.q.q.q.0.u.w.X.N 7 i k p.e.y.q.q.q.q.q.e.X.w u 4 k 3.z.k.k.@.1 x &X",
",X5Xr e 4 e e v t % * 7 O.t.w.y.0.s.[ 7 4 m ..f.0.q.4.q.q.q.q.y.q.q.q.q.q.q.q.q.q.q.q.q.q.q.q.q.q.q.q.q.q.q.f.5.b & 7 #.s.w.4.q.y.r.X.4 u v j.F.S.M.m.m.Z.f x &X",
"5X=X- 9 v.N.N.N.N.V./ 5 u w X.r.u.+.7 i $.u.u.q.q.q.q.q.q.q.q.q.q.q.q.q.q.q.q.q.q.q.q.q.q.q.q.q.q.q.q.q.0.q.q.w.u.{ q u N a.0.0.y.y.v 4 Q B.M.b.m.m.m.m.n.b x 3X",
"5XXXo Q F.m.m.m.m.m.D.C.Q * 9 X.O.* t o.r.;.q.q.q.q.q.q.q.q.q.q.q.q.q.u.q.q.q.q.q.q.q.q.q.q.q.q.q.q.q.q.q.q.q.q.w.w.a.W & r X.r.s.M & Q A.m.m.m.m.m.m.m.n.g c ,X",
"5X|.X / S.m.m.m.m.m.N.m.G./ 7 a i t o.w.q.y.q.q.q.q.q.q.q.q.q.q.q.q.q.q.q.u.q.q.q.q.q.q.q.q.q.q.q.q.q.q.q.q.q.q.q.q.q.r.{ e 4 X.[ y l G.m.N.m.m.m.m.m.m.C.w z <X",
"<X XX / S.m.M.m.m.m.m.m.m.F.Z i q 5.0.q.q.q.q.q.u.q.q.q.q.q.q.q.q.q.q.u.q.q.q.q.q.q.q.p.u.q.q.q.q.q.q.q.q.y.q.q.q.q.:.q.w.*.s e m 5 h.M.m.m.m.m.m.m.m.m.V.- J 5X",
",X+Xo E S.b.m.m.m.m.m.m.M.7.4 v p.w.q.q.q.q.q.q.q.q.p.q.q.q.q.q.q.q.q.q.q.q.q.q.u.q.q.q.q.q.q.p.y.q.q.q.q.y.q.q.q.q.q.q.;.r.p.e i M N.m.m.b.m.m.m.m.m.M.9.O J.5X",
",X5X@ > F.m.m.m.m.m.m.m.Z.$ 4 p.0.q.q.q.q.q.q.q.q.q.q.q.q.q.q.q.q.q.q.q.q.q.q.q.q.q.q.q.q.q.q.q.q.q.q.y.q.q.q.q.q.q.q.y.0.y.t.[ p l Z.m.m.m.m.m.m.m.m.G.v o '.3X",
"<X5Xz 3 l.m.m.m.m.m.m.B.V 4 $.w.y.q.q.q.q.q.q.q.q.q.y.q.q.q.u.q.q.q.q.q.q.q.p.q.q.q.q.q.q.q.q.q.q.q.q.q.y.q.q.q.q.q.q.q.q.q.;.w.! % V D.b.b.m.m.b.b.M.h.% G 5X2X",
"4X4X2.$ 3.S.m.m.m.b.M.z.& f i.q.y.q.q.q.q.q.u.q.q.q.q.q.q.q.q.q.u.q.q.q.q.q.q.q.q.q.q.q.u.q.q.q.q.q.y.y.q.q.q.y.q.q.q.q.q.q.y.y.s.v # h.B.m.m.m.b.m.Z.f = ^.5X4X",
"4X>X+X8 1 j.M.m.m.m.Z.3 5 p.u.q.q.q.q.0.q.y.q.y.q.q.q.u.q.q.q.q.q.q.q.q.q.q.q.q.q.q.q.q.q.q.q.q.y.q.q.w.q.q.y.w.q.q.q.y.q.;.w.;.>.p.r 5 V.m.N.m.m.A.w $ T 5X5X4X",
"3X&X4XR.o q V.B.m.B.Q y ! t.q.y.q.q.q.y.q.q.q.y.q.q.q.q.q.p.q.q.q.q.q.q.q.u.q.q.y.q.q.q.q.q.q.q.q.q.q.q.y.q.q.q.y.q.q.q.q.q.y.q.0.u.^ * h F.m.S.G.k < t ;X5X5X,X",
"&X5X5X5XH.< - 6.n.z.% N i.;.y.;.q.q.q.y.q.q.q.w.y.q.q.q.q.q.q.q.p.q.q.q.q.q.q.q.q.q.q.q.u.q.q.y.q.e.y.q.q.q.q.q.y.q.q.y.y.q.q.q.q.;.d.v & 6.C.} ; # G ,X4X#X#X:X",
",X5X5X5X3XJ.= 3 t t u o.w.y.q.;.;.q.q.q.q.q.q.q.q.q.q.q.q.q.q.q.q.q.q.q.q.q.q.q.q.q.q.u.q.q.q.q.q.y.q.q.q.q.y.q.q.q.q.q.q.q.q.q.q.q.w.{ 8 e q 3 1 1.1X5X2X&X>X:X",
"&X5X5X5X&X5X.X2.z 7 N s.;.q.q.q.y.q.q.q.y.q.q.q.q.q.q.q.q.q.q.u.q.q.q.q.q.q.q.q.q.u.q.y.q.q.q.q.q.q.q.y.q.y.w.q.q.q.y.q.q.y.y.q.q.q.q.t.N i s <..X5X5X5X3X%X%X>X",
"3X&X&X&X5X5X5X5XK 6 &.u.q.q.q.q.y.q.y.q.q.q.q.y.q.u.q.q.q.q.q.q.q.q.q.q.q.q.u.q.q.q.q.q.q.q.q.q.y.q.q.q.q.q.y.y.q.q.w.q.q.q.q.q.q.q.q.w.5.3 Y 5X5X,X&X&X,X5X5X4X",
"5X&X&X&X5X5X5X#X1 v i.q.q.q.q.q.p.q.q.q.q.q.q.q.q.q.q.q.u.q.q.y.q.u.q.q.q.u.q.q.q.q.q.y.q.q.q.q.q.q.q.q.q.q.q.w.y.q.q.y.w.q.q.q.q.q.q.q.t.M 1 *X5X,X%X&X<X5X5X3X",
"5X&X&X%X5X5X5XQ.# ~ t.q.q.q.q.u.q.q.q.q.q.q.q.q.q.q.u.q.q.q.q.q.q.q.q.q.q.q.q.q.y.y.q.q.q.q.q.y.q.u.q.q.q.q.y.q.q.q.q.q.y.q.q.y.q.y.q.q.w.~ @ E.5X;X&X#X,X5X5X5X",
",X,X3X<X,X,X5XU $ p.q.q.q.q.q.q.q.q.q.q.q.u.q.q.q.q.q.q.q.q.q.q.q.q.q.q.q.q.q.q.q.w.y.q.q.w.y.q.u.q.y.q.q.y.q.q.y.q.q.q.q.q.q.q.q.q.q.q.q. .8 K 3X<X<X<X<X,X,X<X",
":X5X5X5X&X&X%X7 m e.q.q.q.q.q.q.q.q.q.q.q.q.q.q.q.y.y.q.q.q.q.q.q.q.q.q.p.q.q.q.q.q.q.q.y.q.q.q.q.q.q.q.q.q.q.q.q.q.y.q.q.u.q.q.q.q.y.q.q.i.j @ |.5X5X5X<X#X%X&X",
":X5X5X5X&X,X'.1 O.w.q.y.q.q.q.q.q.q.q.q.q.q.q.q.q.q.q.q.q.q.q.y.q.q.q.q.q.q.q.q.q.q.q.q.q.q.q.q.q.q.q.q.q.q.q.q.q.q.q.q.q.u.q.q.q.q.q.y.y.e.~ O Q.5X5X5X<X&X&X,X",
",X3X3X5X,X5XU.1 [ w.q.q.q.y.q.y.u.q.q.q.q.q.q.q.q.q.q.q.y.q.q.q.q.4.i.q.q.q.q.u.q.q.y.q.q.q.q.q.q.q.q.q.q.q.q.q.q.q.q.q.q.q.q.q.y.q.q.w.q.w.X.@ 1.5X2X4X<X&X&X,X",
"5X&X%X&X5X5X,.6  .q.q.q.q.q.q.y.q.q.q.q.q.q.q.q.q.q.q.q.q.q.q.q.q.q.q.q.q.q.q.q.q.y.q.y.q.q.q.q.q.q.q.q.q.q.q.q.q.q.q.q.q.q.q.q.q.q.q.q.q.q.p.1 L 5X&X%X<X5X5X5X",
"3X&X&X&X5X5Xc > i.q.q.q.y.w.q.q.q.w.4.q.q.q.q.4.q.q.q.u.q.q.q.q.q.q.q.q.q.q.q.q.q.q.q.q.q.q.q.q.q.q.q.q.q.e.i.q.q.q.q.y.q.q.q.y.q.y.q.q.q.q.u.t x 5X&X&X<X5X5X5X",
"5X&X%X&X5X<X7 v i.y.q.q.y.q.q.q.q.q.q.q.q.y.q.q.q.q.q.q.q.q.q.q.q.q.q.q.q.q.q.q.q.q.q.q.q.q.q.q.y.q.q.w.p.[ ~ { s.w.q.q.q.q.q.q.q.y.q.q.q.q.i.f z 5X&X%X,X5X5X5X",
":X5X5X5X,X$X1 h s.;.q.q.q.q.q.y.q.4.q.e.u.4.i.u.y.q.q.q.q.q.q.q.q.q.4.0.-.` -.-.0.q.q. .q.q.q.q.q.;.w.{ 4 p p u n 4.y.q.q.q.q.q.q.q.q.q.q.q.r.v s 5X5X5X3X%X&X&X",
":X5X5X5X,XXX@ C t.q.q.q.q.q.q.q.q.q.i.} v t v [ i.q.y.y.q.q.q.;.-.' ` p.K.K.K.x.y.=.` -.;.q.;.q.;.y.>.f e s s r 7 C t.y.q.q.q.q.q.q.q.q.q.q.e.w z 5X5X5X,X%X&X,X",
"&X5X5X5X;XXX$ k s.q.q.q.q.y.q.q.q.e.^ 4 s s s 4 ~ i.y.y.;.q.` _ P.[.5X4X5X5X5X5X4X-X`.c.` ;.y.q.0.w.{ 5 r r r r r 8 p.0.q.q.y.q.q.u.q.q.q.q.i.w J 5X5X5X3X#X#X>X",
"<X:X:X:X5X;X1 g s.q.q.q.w.y.q.q.;.>.t a s s r s t y.y.y.q.;.p.OX5X5X5X5X5X3X5X5X5X5X5X5X].' -.y.q.w.{ 7 s s r r s e 4.q.q.y.q.q.q.q.q.y.y.y.s.9 U 5X,X&X<X3X3X2X",
"5X&X&X&X5X3Xe w i.q.q.q.y.q.q.q.w.| s s e r s r 7 X.w.0.;.' 1X5X5X5X5X%XP x 1.5X5X5X5X5X5X@Xp.0.y.q.:.r s r s s a 7 i.q.q.q.q.q.y.q.q.q.q.;.u.1 U 5X&X%X<X5X5X5X",
"3X&X%X%X5X5XG 8 y.q.q.q.q.q.q.q.w.| 7 s r r r s r | w.w._ oX5X5X5X5X5XF 1 e = U 5X5X5X5X5X5X@X' ;.q.i.^ i i a a 9 #.e.q.y.q.y.q.q.q.q.q.q.q.i.1 Y 5X&X%X,X5X5X5X",
"<X,X,X,X3X5X2.1 { w.q.y.q.q.q.q.q.p.f a s s a a v w.q.-.L.5X5X5X5X5X1X; r s w r #X5X5X5X5X5X5XI.=.q.q.r.[ C M Z { e.q.q.q.q.q.q.q.q.q.q.q.w.o.@ H.5X,X>X<X2X1X,X",
":X5X5X5X&X3X!.1 ! u.q.q.q.q.q.q.q.q.4.m e 7 7 7 o.q.q.` ].5X5X5X5X5X5X1 e s e P 5X5X5X5X5X5X5X-X' q.q.q.w.e.e.e.u.q.q.q.q.q.q.q.q.q.q.q.q.e.E @ '.5X5X5X,X&X&X:X",
":X5X5X5X#X,X.X1 C e.q.q.q.q.q.q.q.q.e.q.[ #.~ o.w.q.q.` -X5X5X5X5X5X5X_.7 e 9 c 5X5X5X5X5X5X5X5Xp.q.q.q.y.;.y.y.q.q.q.q.q.q.q.q.q.q.q.4.q.u.w z #X5X5X5X<X&X&X>X",
",X5X5X5X;X:X,Xr 9 i.y.;.q.q.y.q.q.q.q.q.w.w.w.0.q.q.q.( -X5X5X5X5X5X5XU.; r e 6 = .X5X5X5X5X5X5Xc.=.;.y.q.q.q.q.;.q.q.q.y.q.y.q.y.y.q.q.q.{ 1 2.4X3X5X5X<X%X&X,X",
"3X&X&X&X5X5X5XU $ 5.w.q.q.q.q.q.q.q.q.q.q.y.q.q.q.q.q._ oX5X5X5X5X5X^.; . )..Xo 2 - R.5X5X5X5X5Xp.;.q.q.q.q.q.q.q.q.q.q.q.q.q.q.0.q.;.4.t.V @ '.5X,X&X#X3X5X5X3X",
"5X&X&X&X3X5X5X'.O O.t.q.q.q.q.q.q.q.q.q.q.q.q.q.q.q.q.=.P.5X5X4X5XU.. = R.5X5X3XI o   (.5X5X5X@X .y.q.q.q.y.y.q.q.q.y.q.q.q.q.q.q.q.q.e.X.$ L 5X5X,X&X&X,X5X5X5X",
"5X%X&X%X5X5X5X,Xz 9 p.w.q.;.q.q.q.q.w.y.q.q.q.q.q.q.q.;.p.-X5X1X5Xz   U.5X5X5X5X5XT.c *X5X3X5XP.-.y.q.q.q.q.w.y.y.q.q.q.q.q.q.q.q.q.0.a.v = .X5X5X&X&X%X3X5X5X3X",
",X5X3X5X,X,X#X5XQ.@ k s.;.q.q.q.q.y.q.q.q.q.q.q.q.q.q.;.=.5.<X5X5X5X+X5X5X5X5X5X5X5X5X5X3X5XI._ q.q.q.q.q.y.q.q.q.q.q.q.q.q.4.q.q.w.t.n # T.5X>X,X2X3X5X,X&X>X,X",
"&X5X5X5X&X&X&X4X5Xc 3 ^ e.q.y.;.q.q.q.q.y.q.q.q.q.q.q.q.q.-.p.`.-X5X5X5X5X5X5X5X5X5X5X5X[.x._ 0.q.q.q.q.q.q.q.q.q.q.q.q.q.q.0.q.q.i.C @ G 5X;X&X%X3X5X5X3X#X&X>X",
":X5X5X5X&X&X%X2X5X;Xc 1 W s.w.q.q.y.q.y.q.q.q.q.q.q.q.q.q.q.;._ _ ) ' p.y. .` ` 4.:.;.( _ -.q.q.q.q.q.q.q.q.q.q.q.q.q.q.;.q.0.i.4.t o Y 5X5X&X&X%X3X5X5X4X#X#X,X",
"<X<X<X1X,X,X,X,X1X5X%X7 3 ! i.w.0.q.;.q.y.q.q.q.q.q.q.y.y.q.;.q.q.y.' ;.q.-.q.q.;.;.;.q.q.q.q.q.q.q.q.4.;.q.q.q.q.q.q.q.q.w.p.! 9 = <.5X5X3X,X,X,X2X3X,X,X,X,X,X",
"4X%X&X%X3X5X5X,X%X%X4X;XJ O w ..t.u.q.q.q.q.q.q.q.q.q.q.q.q.q.q.y.0.y.q.q.4.q.q.q.q.q.q.q.q.q.q.q.q.q.q.y.q.q.q.0.y.w.e.s.[ v @ 7 ).5X&X%X&X5X5X5X,X&X#X,X4X5X5X",
"4X&X&X&X5X5X5X,X&X&X>X5X5XJ.1 1 h 5.w.w.q.q.4.q.q.q.q.q.q.;.q.;.q.q.q.q.q.q.q.;.q.q.q.q.q.q.q.4.q.q.q.;.q.q.;.w.i.y.o.#., 1 1 H.;X5X4X&X&X:X5X5X5X&X:X%X2X5X5X3X",
"4X:X&X&X3X5X4X,X>X&X,X3X5X5X.XG o 8 C ] d.t.0.w.q.y.u.y.q.0.q.w.q.;.q.q.q.q.q.q.q.q.q.q.q.q.q.q.q.w.w.w.t.s.p.| +.n 1 O - T {.5X4X4X4X&X&X:X4X4X5X,X&X&X,X4X4X2X",
"&X5X5X5X:X%X&X,X5X5X3X&X&X&X5X5X'.F 4 3 0 O.%...| 4.u.q.y.q.y.p.u.u.i.y.w.u.y.q.u.y.y.y.p.>.y.>. .X.{ { O.M ; < 1 e U ~.3X5X5X,X&X&X>X5X5X5X&X%X&X3X5X5X<X#X&X>X",
",X5X5X5X:X&X%X3X5X5X2X%X&X,X5X5X4X4X'.1.= o o @ 1 q v v w f v f v b b b b N n f v l > l w 9 0 9 2 - @ o o - I T.'.XX5X5X5X5X5X,X&X%X,X5X5X5X&X>X&X3X5X5X<X&X&X=X",
"&X5X5X5X&X&X&X3X5X5X2X&X%X&X5X5X4X,X,X3X5X%X'.T.R H D F F F F F c x z z z d z z c F G H H J K U <.H.T.~.|.5X5X5X5X>X&X&X5X5X5X,X&X%X,X5X5X5X&X&X%X5X5X5X<X%X%X,X",
"3X&X,X&X3X5X3X<X&X&X<X4X3X3X,X&X&X3X5X3X3X<X<X5X5X5X3X,X;X>X,X,X,X;X%X%X%X*X=X;X*X=X,X,X5X5X5X5X5X5X5X5X5X3X>X&X,X3X5X3X,X&X&X3X5X3X3X&X:X,X2X3X3X,X&X&X3X3X5X3X"
};
