/* XPM */
static char *_631ce5bff6d48f5a8f3be6e8854fce0PiVkuW5jUYVnOkDH[] = {
/* columns rows colors chars-per-pixel */
"123 100 17 1 ",
"  c None",
". c #5A3614",
"X c #4D3427",
"o c #543B37",
"O c #784C12",
"+ c #776862",
"@ c #986820",
"# c #BA8636",
"$ c #C58207",
"% c #C58110",
"& c #C2841F",
"* c #FCD105",
"= c #F6D033",
"- c #ACA094",
"; c #D7CBBC",
": c #EDEDEC",
"> c #FCFCFB",
/* pixels */
" :::::>>>>>:::::>>>>>>::::>>>>>>:::::>>>>>:::::>>>>>:::::>>>>>:::::>>>>>:::::>>>>>:::::>>>>>:::::>>>>>>::::>>>>>>:::::>>>>>",
">:::::>>>>>:::::>>>>>>::::>>>>>>:::::>>>>>:::::>>>>>:::::>>>>>:::::>>>>>:::::>>>>>:::::>>>>>:::::>>>>>>::::>>>>>>:::::>>>>>",
":>>>>>>::::>>>>>:::::>>>>>::::::>>>>>:::::>>>>>:::::>>>>>:::::>>>>>:::::>>>>>:::::>>>>>:::::>>>>>>::::>>>>>>::::>>>>>>:::::",
":>>>>>:::::>>>>>>:::::>>>>::::::>>>>>:::::>>>>>:::::>>>>>:::::>>>>>:::::>>>>>:::::>>>>>:::::>>>>>::::::>>>>>:::::>>>>>:::::",
":>>>>>:::::>>>>>>::::>>>>>>::::>>>>>>:::::>>>>>:::::>>>>>:::::>>>>>:::::>>>>>:::::>>>>>:::::>>>>>>::::>>>>>>::::>>>>>>:::::",
":>>>>>:::::>>>>>::::::>>>>>:::::>>>>>:::::>>>>>:::::>>>>>:::::>>>>>:::::>>>>>:::::>>>>>:::::>>>>>>::::>>>>>>:::::>>>>>:::::",
":>>>>>:::::>>>>>::::::>>>>::::::>>>>>:::::>>>>>:::::>>>>>:::::>>>>>:::::>>>>>:::::>>>>>:::::>>>>>>::::>>>>>>:::::>>>>>:::::",
">:::::>>>>>:::::>>>>>>::::>>>>>>:::::>>>>>:::::>>>>>:::::>>>>>:::::>>>>>:::::>>>>>:::::>>>>>:::::>>>>>>:::>>>>>>>:::::>>>>>",
">:::::>>>>>:::::>>>>>>::::>>>>>>:::::>>>>>:::::>>>>>:::::>>>>>:::::>>>>>:::::>>>>>:::::>>>>>::::;-++oo++++-;:>>>>:::::>>>>>",
">:::::>>>>>::::::>>>>>:::::>>>>>:::::>>>>>:::::>>>>>:::::>>>>>:::::>>>>>:::::>>>>>:::::>>>>>>;-+XXXXX.....XXo+;>>:::::>>>>>",
">:::::>>>>>:::::>>>>>>::::>>>>>>:::::>>>>>:::::>>>>>:::::>>>>>:::::>>>>>:::::>>>>>:::::>>>>;-oXo.....OOO...XXXX+:>::::>>>>>",
">>::::>>>>>>:>>:;;-----;::>>>>>>:::::>>>>>:::::>>>>>:::::>>>>>:::::>>>>>:::::>>>>>:::::>>>-oXX..O@#########@....o-::::>>>>>",
":>>>>>:::::>>:+oXXXXXXXXo+-:>:::>>>>>:::::>>>>>:::::>>>>>:::::>>>>>:::::>>>>>:::::>>>>>>;+Xo..@#&&&&&&%%%&&##@O.XX->>>:::::",
":>>>>>::::>:-oXX........XXXX+;>>>>>>>:::::>>>>>:::::>>>>>:::::>>>>>:::::>>>>>:::::>>>>>;XXo.@#%$$$$%%%$$$$$$%&#@..X+>>:::::",
":>>>>>:::>;oX...O@@@@@@OO...XX+:>>>>>:::::>>>>>:::::>>>>>:::::>>>>>:::::>>>>>:::::>>>>;XX.O##%%$$$$$$$$$$$$$%%%&@..X+>:::::",
":>>>>>::>-oXX.@#%%%%%&&###@O.XXo->>>>:::::>>>>>:::::>>>>>:::::>>>>>:::::>>>>>:::::>>>:oX.O&%$$%%%%%%$$$$%%%%%%$$##.XX->::::",
":>>>>>::-XoXO&$$$$%%%%%%%%$&@.XoX+:>>:::::>>>>>:::::>>>>>:::::>>>>>:::::>>>>>:::::>>:-XXO&$$%%%%%%$$%%%%%%&&%%$$$%&..X;:::>",
">:::::>:oX.@#&$$%%%%%%%%%%%$&#O.XXo;>>>>>>:>>:>>>>>>>::::::;;;:::::>>>>>:::::>>>>>:>;Xo.#&$$%%%%%%$$%%%%$$$%%%%$&%&@Xo+>>>>",
">::::::+X.O&&&%$%%%%%%$$$%%&&&#@...X->>>>>:>>:;;--++oXXoXoooXXooXoo++--;;::::>>>>>>>+XX@#$$$$$%%%%%$%%%%$$$$%%%$#%%#.oX;>>>",
">:::::+XXO#$$%%%%%%%%%$$$%&&%$$%#..XX->>>>;-+oXXXXXXX..............XXXXXo++-;>>>>>>:oo.#%$$$$%%%%%%%%%%$$$$%%%%$%$$%@.X+>>>",
">:::>-Xo.#&%$$&%%%%%%$$$%%&%%$$$&#O.oX;:-+XXooX.....OOOOOOO@O@@OOOO....oXoXXXo+;>>>-XXO&%$$$%%%%$%%%%%$$$%%%$$%%$$$$#O.o:>>",
">::::oo.@&%%$$%&%%%%$$$%%%%%$%%%$%#OXXooXXX..OO@@#######&&&&&&&&&&####@@O...XXXX+;:oo.@%%&%$%%%%$$$%%$$$$%%$$%&#&&###@.X->>",
":>:>-XoO&$$$%%%&$%%%%%%%%$$$%%%%$$##.ooo..O@#&&&&&&%%%%%%%%%%%%%%%%%&&&&&##@O...oXXoo.&$%&&%%&%$%$$$$%%%%%%%&#@O..o.O.Xo+>>",
":>>>+X.#&%%&&&%$$$$%%%%$$$%%%%$%&#@..oX.@#&&%$$$$%$$%$%$%%%%%%%%%%$$$$$$$$%&##@O...Xo.#&%%%%%&%$$$%%%%%%%&&@..XoooXXXoooo;:",
":>>:X.O##@@@@@&&%%$%%&%%%%%%%$&&@....O@#&&%%$$$$%%%%%%%%%%%%%%%%%%%$$$$$$%%%&&&&#O..oo.@#%%%%%%%$%$%%%%&#@.XooXX......ooX->",
":>>-X...XXXXXX.O@#&%%%%%%%%%%#@OXoX.@#&%%%%%%%%%%%%%%%%%%%%$$$$$%%%%%%%%%%%%%%%%%&#@.XoXO#&%$$$%%%%%%%%#OXoo..@#=====@.oX->",
":>>+XoXooXX.XXooX.O&%%%%%$$%#O.oX.O#&$$$$$%%%%%%%%%%%%%%%%%%%%%%$$%%%%%%%%%%%%%%$%&&#@.XX.O#&$$%&%$$$%&OXoX.&===*****=OXX->",
">::oXo..O@@@@O.XXX..@&%$$$&#..oXO#&%$$$%%%%%%%$$$$$$$$$%%%%%%%%%$$%%%%%%$$$$$%%%$%%%%%#O.oX.#&%$&%$$$&OXo.O=**********#.X->",
">:;oo.#========&O.XXXO#%$&@.oX.@&&$$%%%%%%%%%$$$$$$$$$$%%%%%%%%%%%%%%$$$$$$$$$%%%%%$$$%&#O.XX@#$%%$%&@Xo.@=***********&.X->",
">>;XX@=*********==OXoXO#&@.XXO#&$%%&%%%%%%%%%%%%%%%%%%%%%%%%%%%%%%%%%$$$$%%%%%$$%%$%%%$$$&@XoXO&&%%&@.o.#=***********=#.X->",
">>;oX@************=@.o.O@.oXO#%%%%%&&%%%$%%%%%%%%%%%%%%%%%%%%%%%%%%%%%%%%%%%%%%%%%$$$%%%$$&#O...#&%#.X.@=************=#.X->",
">:-X.#=************=#.ooXoXO&$%&&&%$$%$$$$$%%%%%%%%%%%%%%%%%%%%%$$$%%%%%%%%%%%%%%&%$$$&&%$$%#@Xo.@&O.oO=*************=@XX->",
">>;X.#=**************&.oo.O&$$$%%%%%%%%%%%%%%%%%%%%%%%%%%%%%%%%%%%%%%%%%%%%%%%%%%%%%%%%%%$%%&&@.o.@oo.=**************=OXo;>",
":>;oX@=*************==.oXO#&$$$%%%%%%%%%%%%%%%%%%%%%%%%%%%%%%%%%%%%%%%%%%%%%%%%%%%%%%%%%%%%%&&&@oX.XXO=**************=.oo;:",
":>;XX@=*************=.XXO#&%$$$&%%%%%%%%%%%%%%%%%%%%%%%%%%%%%%%%%%%%%%%%%%%%%%%%%%%%%%%%%%%%%&&&@.oo.&***************=.o+::",
":>;XoO=************=OXoO#%%%%%%%%%%%%%%%%%%%%%%%%%%%%%%%%%%%%%%%%%%%%%%%%%%%%%%%%%%%%%%%$%%%%%%&#@Xo.=**************=@.X->:",
":>:oo.=************&.X.#%%%%%%%%%%%%%%%%%%%%%%%%%%%%%%%%%%%%%%%%%%%%%%%%%%%%%%%%%%%%%%%%$$%$%%%%$&OoX@=*************=..X;::",
">>:+o.&***********=.o.@%$%%%%%%$%%%%%%%%%%%%%%%%%%%%%%%%%%%%%%%%%%%%%%%%%%%%%%%%%%%%%%%%%$$$$$%%$$&.oX&************=@.X+:>>",
">::-X.@**********=OooO&$$%%%%%%$%%%%%%%%%%%%%%%%%%%%%%%%%%%%%%%%%%%%%%%%%%%%%%%%%%%%%%%%%%$%%$$$$$%@Xo.=***********=.oX;>>>",
">::;oX.=*********#.o.#$$$%%$$%%%%%%%%%%%%%%%%%%%%%%%%%%%%%%%%%%%%%%%%%%%%%%%%%%%%%%%%%%%%%%%%$$$%%%&@XoO=*********=O.o+>>>>",
">::>+XXO=*******=.XX@&$%%%%%$$%%%%%%%%%%%%%%%%%%%%%%%%%%%%%%%%%%%%%%%%%%%%%%%%%%%%%%%%%%%%%%%%%$$%%%&OX.@=*******=OXoX;>>>>",
">:::;oo.@=*****=@.XO&$%%&%%%%$$%%%%%%%%%%%%%%%%%%%%%%%%%%%%%%%%%%%%%%%%%%%%%%%%%%%%%%%%%%%%%%%%%$%%$%#.o.=******=@.oX->>>>>",
">:>:>-Xo.@=****&X..#%$%%&%%%%$%%%%%%%%%%%%%%%%%%%%%%%%%%%%%%%%%%%%%%%%%%%%%%%%%%%%%%%%%%%%%%%%%%%%%$$&@XXO=***==@.XX->>>>>>",
":>>>>>-Xo.@=*==Oo.@&%%%%%%%$%%%%%%%%%%%%%%%%%%%%%%%%%%%%%%%%%%%%%%%%%%%%%%%%%%%%%%%%%%%%%%%%%%%%&%$$$%#.X.@===&.XXX+>>:::::",
":>>>>>:+XoX.@##.XO&%%&%$%%$$$%%%%%%%%%%%%%%%%%%%%%%%%%%%%%%%%%%%%%%%%%%%%%%%%%%%%%%%%%%%%%%%%%%%&%$%%%&@.X.#@...oX->>>:::::",
":>>>>>>:-Xooo..o.#%$&&%$%%$$$&%%%%%%%%%%%%%%%%%%%%%%%%%%%%%%%%%%%%%%%%%%%%%%%%%%%%%%$$%%%%%%%%%%%%$%%%%#O.oXXooXo;>>>>:::::",
":>>>>>:::;+oXoooO#%$%%$%%%$$%%%$%%%%%%%%%%%%%%%%%%%%%%%%%%%%%%%%%%%%%%%%%%%%%%%%%%%%$$$%%%%%%%$$$$%%%%%&#.oooX+-:>>>>>:::::",
":>>>>>:::>:;-XoX&&%$$$$%%%%%%%%$%%%%%%%%%%%%%%%%%%%%%%%%%%%%%%%%%%%%%%%%%%%%%%%%%%%%$$$$%%%%%$$$$$$%%$$%#OXXo-:>>>>>>>:::::",
">:::::>>>>>>-X.O%%%%%%%%%%%%%%%%%%%%%%%%%%%%%%%%%%%%%%%%%%%%%%%%%%%%%%%%%%%%%%%%&&%%%%%%%%$$$%%&%&%%$%%$$&.X+:>>>:::::>>>>>",
">:::::>>>>>>+X.#%%%%%%%%%%%%%%%%%%%%%%%%%%%%%%%%%%%%%%%%%%%%%%%%%%%%%%%%%%%%%%%%%%%%%%%%%%$$$%%%%%%%$%%$$#Ooo:>>>:::::>>>>>",
">:::::>>>>>:oXO#%%%%%%%%%%%%%%%%%%%%%%%%%%%%%%%%%%%%%%%%%%%%%%%%%%%%%%%%%%%%%%%%%$$$$$$$%%%%%%%%$%%%$%%%%&@.X->>>:::::>>>>>",
">:::::>>>>>-XX@&%%%%%%%%%%%%%%%%%%%%%%%%%%%%%%%%%%%%%%%%%%%%%%%%%%%%%%%%%%%%%%%%$$$$$$$$%%%%%%%%$%%%%%%%%&#.Xo>>>:::::>>>>>",
">:::::>>>>>+X.@$%%%%%%%%%%%%%%%%%%%%%%%%%%%%%%%%%%%%%%%%%%%%%%%%%%%%%%%%%%%%%%%%%%%%%%%%%%%%%%$$$$%%%%%%%&&O.o;>>::::>>>>>>",
":>>>>>:::::oo.#$%%%%%%%%%%%%%%%%%%%%%%%%%%%%%%%%%%%%%%%%%%%%%%%%%%%%%%%%%%%%%%%%%%%%%%%%%%%%$$$$$$$%%%%%%%%@.X+>>>>>>>:::::",
":>>>>>::::;XXO&$%%%%%%%%%%%%%%%%%%%%%%%%%%%%%%%%%%%%%%%%%%%%%%%%%%%%%%%%%%%%%%%%%%%%%%%%%%$$$$%%%$$%%%%%%%%&.oo:>>>>>>:::::",
":>>>>>::::-X.@&$%%%%%%%%%%%%%%%%%%%%%%%%%%%%%%%%%%%%%%%%%%%%%%%%%%%%%%%%%%%%%%%%%%$$%%%%%%$$$$%%%%$$%%%%%$$&OXX;>>>>>>:::::",
":>>>>>:::>+X.#&$%%%%%%%%%%%%%%%%%%%%%%%%%%%%%%%%%%%%%%%%%%%%%%%%%%%%%%%%%%%%%%%%%%%$$%%%&%%$$$%%%%$$%%%%%$%&@.X->>>>>>:::::",
":>>>>>::::o.O#%$%%%%%%%%%%%%%%%%%%%%%%%%%%%%%%%%%%%%%%%%%%%%%%%%%%%%%%%%%%%%%%%%&&%$$$%&&&%%$%%%&%$$$%%%%%%&#.X+>>>>>>:::::",
">:::::>>>;X.O&%%%%%%%%%%%%%%%%%%%%%%%%%%%%%%%%%%%%%%%%%%%%%%%%%%%%%%%%%%%%%%%%%%&%%$$$%%%%%%%%%%&%$$$%%%%%%&#.X+>:::::>>>>>",
">:::::>>>;X.@&%%%%%%%%%%%%%%%%%%%%%%%%%%%%%%%%%%%%%%%%%%%%%%%%%%%%%%%%%%%%%%%%%%%$$$$$$$%%%%%%%%%%%$%%%%$%%&#.Xo>:::::>>>>>",
">:::::>>>-X.&$%&%%%%%%%%%%%%%%%%%%%%%%%%%%%%%%%%%%%%%%%%%%%%%%%%%%%%%%%%%%%%%%%%$$$$$$$$$$%%%%%%%%%%%%%%%%%%#O.o::::::>>>>>",
">:::::>>>+X.#$$&%%%%%%%%%%%%%%%%%%%%%%%%%%%%%%%%%%%%%%%%%%%%%%%%%%%%%%%%%%%%%%%%%&&#&&&$$$$%%%%%%$%%%%$$%%%%&O.o::::::>>>>>",
">:::::>>>+X.#$$&%%%%%%%%%%%%%%%%%%%%%%%%%%%%%%%%%%%%%%%%%%%%%%%%%%%%%%%%%%%%%%%%#@O@@@#&%$$%%%%$$$%%%%$$%%%$&@.X::::::>>>>>",
":>>>>>>::oX.#$$&%%%%%%%%%%%%%%%%%%%%%%%%%%%%%%%%%%%%%%%%%%%%%%%%%%%%%%%%%%%%%%%$...Xo.O#&$$%%%$$$$%%%%$$%%$$&@.X:>>>>>:::::",
":>>>>>:::oXO&$$&%%%%$%%%$$%%%%##@@##%%%&%%%&%$$$%%$$$$$$$$%$$$$$$$%$$$$%%%%%$%#.Xoooooo.#$$%&%%$$$$%%%%$$$%%&@.o:>>>>>:::::",
":>>>>>:::oXO&$$&%%%%%%%$%$%%%&O....O#&%%%%%%%%%$%%&%&#####-####&&&%$$$%%%%%%%&O.ooooXooXO&$%%%%$$$$%%%%$$%%%&O.o:>>>>>:::::",
":>>>>>:::oXO&$$&%%%%%%%$%%%&&..ooooX.#&$$%$%&&%$%&#-;:>>>>>>>>:;;#&%$%%&%%%$$&.ooooXXooo.#%$$%%$%%%%%%%%%%%%&O.o:>>>>>:::::",
":>>>>>:::oXO&$$%$$%%%%%%$$%#OXooooooo.&$$%%%%&%%#;:>>>>>>>>>>>>>>:;#@&%%%&%$$&.ooXXooXXo.#&$$%%%%%%%%%$%%%%%&O.+>>>>>>:::::",
">:::::>>>oo.&$$%$$%&%%%%$$%@XooXXXooo.@%%%&%$%&#>>>>>>>>>>>>>>>>>>>>;#%$%&&$$&.oXXXooXXX.@&$$%%$%%%%%%%%%%%%&O.+>:::::>>>>>",
">:::::>>>+o.#$$&$$%%%$$%%$&@Xoo.oXXooXO&$%%%$%-:>>>>>>>:++-:>>>>>>>>>:#%$%%$$&OoooXooooo.#%$$&%$%%%$$%%%%%%%&O.+>:::::>>>>>",
">:::::>>>+o.#$$%%%$%%$$$%&&O.ooXooooooO&$&%%%#:>>>>>>>:XXXXX;>>>>>>>>>:#%$$%%&@.oooXooooO&$$%&%$%%%$$%%%%%%%#O.+>:::::>>>>>",
">:::::>>>-X.@$$%%%$%%$$$%%&O.ooXoXXooXO&%%%&#:>>>>>>>>oXoXooX:>>>>>>>>>:#$$%%%#OXooXXoo.@&$$%%%%%%$$$%%%%$$%#OX+>:::::>>>>>",
">:::::>>>;XX@&$%%%%%%%$$$$%@.ooXoXooo.@&%%%&;>>>>>>>>:XXXXXoX->>>>>>>>>>;&%$$$&&O......@&$$%%%%%%%$$%%%%%$$%#.X+>:::::>>>>>",
"::>>>>>::;oXO&%%%%%%%%$$$$$#.ooXooooX.&%%%$&:>>>>>>>>;XXXXoXX->>>>>>>>>>:#&%$$%%&#@@@##&%$$%%$%&$$$%%%%%%$$%@.X->>>>>>:::::",
":>>>>>>:::+X.#&$%$$%&%$$$%$%#...oooX.#&%%$%#>>>>>>>>>:XoooooX;>>>>>>>>>>>;&$%%%$$&&&&&&%%$$$$$%%$$$%%%$%&%$&Ooo;>>>>>>:::::",
":>>>>>:::>+X.#&$%$$%%%$$%%%$%#@O...O#&%%$$&;>>>>>>>>>>+XooooX>>>>>>>>>>>>:&$%&&$%%$$$%%%%%$$$$%%$$$%%$$%%%$&.X+::>>>>>:::::",
":>>>>>::::-X.@&$%$$%%%%%%$$$$&&&###&%%%%$%&;>>>>>>>>>>>+XoXXX+>>>>>>>>>>>:#$$&&$&%%%%%%%%%%$$$$$%$%%%$$%%%&@.X-::>>>>>:::::",
":>>>>>::::;XXO#$%%%$$$%%%$$%%%$$$$$$$$%%$%#;>>>>>>>>>>;XXXXXoXo:>>>>>>>>>>#$$&&%%%%&&%%%%&&%%%$$%%%$$%%%$%#OXX;::>>>>>:::::",
">>>:::>>>>:oX.#$%%%$$$%%%%%%%%$$$$$$$%%%$%&;>>>>>>>>>:XXXo;XoooX->>>>>>>>>#$$%%$$%%%%%%$%%%%%%%%%%%$$%&%$%#.X+:>>:>::>>>>>>",
">:::::>>>>>+o.&$%%%$$$$%%%%&%%%%&%&&&&%%$$&->>>>>>>>;XXXX;>:oXoXX+>>>>>>>:#%$%$$$$$$$$$%$$$%%%%%%%%$$%&$$%@XX->>>:::::>>>>>",
">:::::>>>>>;X.O#$$$%&&%$$%%%%%%$$$$$$%%&%$$#:>>>>>>;XXoX->>>>+XXoX->>>::>;#$$$%&&%%$$$%%&%%%$$$$%%%$$%&%%&.oo:>>>:::::>>>>>",
">::::::>>>>:o..#$$&%%$%%%%%%%%%%%%$$$%%&%$$&;>>>>>>XXXX->>>>>>-XXX+>>>>>:#&&$%$%%%%$$%%%%%%$$$%%%%%%%$%%#O.X->>>>:::::>>>>>",
">:::::>>>>>>-X.@%%&&$$%%%$$%%$%%%%$$$$%%%%%&#:>>>>>oXX->>>>>>>>:++:>>>>>;&&&&$$$%%%%%%$$$$$$%%%%%%%%%%$&@.X+>>>>>:::::>>>>>",
">>>>>:>:::>>:o..&&%%%%$%%$$$$%%%%%$$$%%%%$%%%->>>>>>-:>>>>>>>>>>>>>>>>>;#%%%%$$$%%%%%%$$$$%%%%%%$%%%$$&#.XX;>>:>:>>>>>:>:::",
":>>>>>:::::>>-XXO#%$%%%$%%%$%%%$%%%%%%%$$$%$$%#:>>>>>>>>>>>>>>>>>>>>>:;&%%$$$$$%%%%%%%%$$%%%%%%%$%%$$&#.XX->::::>>>>>>:::::",
":>>>>>:::::>>>+X.O#%$$%%%%%%%%$$%%%%%%%$$%%$$$%#;;:>>>>>>>:>>>>>>:>:;#$$%%$$$%%$$%%%%%%$$%%%%%%%%$$$&@.oX+>>:::::>>>>>:::::",
":>>>>>:::::>>>:o..O#$$$%%%&&%%$$$%%%%%%$$%%%$$%%&&@#################&&$$%%%%&%&$$$%%%%%%%%%%%%%%%$$&@.oX+>>>:::::>>>>>:::::",
":>>>>>:::::>>>>:oXXO#%$$%%&&%%$$%%%%%%$$%%&%%$$$$$$$%$$%$$$$$$%$$$$$$$%%$$%%&%%%$$%%%%%%%%%%%$$$&&&OXoX->>>::::::>>>>>:::::",
"::>>>>>:::>>>>>>;oXXO#&$$%%%%%%%%%$$$$$%%%%%%%$$$$$$$%%%$$$$$$$$$$%$$$%%$$$%%%%%%%$$$%%%%%%%$$$$#@..XX->>>>>>>::>:>>>>>::>>",
">:::::>>>>>:::::>:oXo.@&&%$$$%%%&%%$$$$%&%%$%&%%%%%%%&&&%&%%%%%%%&&%%%%%$$$$$$%%%%%%%$$%%$$$%&&&O.oXo;>:::::>>>>>:::::>>>>>",
">:::::>>>>>:::::>>:+XoXO@&%$$%%%&%$$%%%%&&%$%%&%%%%%%%%%%%%%%%%%%%%%%%%%%$$$$%%%%%%%%%%$$$$%##O.oXo-:>>:::::>>>>>:::::>>>>>",
">:::::>>>>>:::::>>>>-Xoo.O&&&%$%%$$$%%%%&&%$$%%%%%%$$$$$$%$$$$$$%$$%%%$$%%%$%%$$$$$$$%%&&&&@O.XXX+;>>>>:::::>>>>>:::::>>>>>",
">:::::>>>>>:::::>>>>>;+XX..@##&%$$$$%%$$%%$$$%%%%%%%%$%%%%%%%$$$%$$$$$$$%%%%%%%$$$$%%&##@O..XXXo->>>>>>:::::>>>>>:::::>>>>>",
">:::::>>>>>>::::>>>>>>:;oXoX.O@#&&&&&%%%%%%%%%%%&&%%%%%%%%%&&&&&%%%%%%%%&&&&&&&&&&#&@OO.XoXXo+-:>>>>>>>:::::>>>>>::::>>>>>>",
":>>>>>:::::>>>>>:::::>>>>-oXXX..O@#####&&&&&&&&&&&&&&&&&&&&&&&&&&&&&&&##########@OO...XXXX+-:>>>>::::::>>>>>:::::>>>>>:::::",
":>>>>>:::::>>>>>>::::>>>>>:-+oooXX...OOO@@@@@@@@@@@%%%%%%%%@@@@@@@@@@OOOOOOOO....XXXooo+-;::>>>>>:::::>>>>>>:::::>>>>>:::::",
":>>>>>:::::>>>>>>::::>>>>>>>:;-oXXXXXXXXXXXXXXXXXXXXXXXXXXXXXXXXXXXXXXXXXXXXXXXXXXo+-:>>::::>>>>>::::::>>>>::::::>>>>>:::::",
":>>>>>:::::>>>>>:::::>>>>>>::::::;-++ooXXXXXXXXXXXXXXXXXXXXXXXXXXXXXXXXXXooo+++--;>>>>>:::::>>>>>::::::>>>>>:::::>>>>>:::::",
":>>>>>:::::>>>>>>::::>>>>>>:::::>>>>>:;;;;;;;;;;---------------;;;;;;;;;:::>>>>>>>>>>>>>::::>>>>>>::::>>>>>>::::>>>>>>:::::",
">:::::>>>>>>::::>>>>>>:::::>>>>>:::::>>>>>::::>>>>>>>::::>>>>>:::::>>>>>:::::>>>>>:::::>>>>>>::::>>>>>>:::::>>>>>:::::>>>>>"
};
