/* XPM */
static char *_3f7f2b63b6744d6e076500db216720eTdLblSgSmedQ3S3Z[] = {
/* columns rows colors chars-per-pixel */
"65 55 17 1 ",
"  c None",
". c #150106",
"X c #341814",
"o c #1D0E33",
"O c #4F342C",
"+ c #796963",
"@ c #81551D",
"# c #AA6C13",
"$ c #C4810E",
"% c #DA900C",
"& c #FBD903",
"* c #CDA054",
"= c #A0958D",
"- c #D0C7BB",
"; c #E6E6E5",
": c gray95",
"> c #FDFDFD",
/* pixels */
" ;;>>>;;:>>:;;>>>;;:>>;;:>>:;;>>:;;:>>;;;>>:;;>>>;;:>>;;;>>:;;>>>",
":>>:;;>>:;;:>>;;:>>:;;>>>;;:>>;;:>>:;;>>>;;:>>:;;>>:;;>>>;;:>>:;:",
";>>:;;>>>;;:>>;;;>>:;;>>>;;:>>;;:>>:;;>>>;;:>>;;;>>:;;>>>;;:>>:;:",
":>>:;;>>>;;:>>;;:>>:;;>>:;;:>>;;:>>:;;>>:;;:>>:;:>>>>>>>>:;:>>:;:",
">;;>>>;;;>>:;;>>>;;:>>;;:>>:;;>>:;;:>>;;;>>:;;>>>>>;=++=->>:;;>>>",
">;;>>>;:>>>>>:>>>;;:>>;;:>>:;;>>:;;:>>;;:>>:;;>>>+...XX...+>>;>>>",
":;;:>>>;=+++=;>>>;;:>>:;:>>:;;>>::;:>>:;:>>:;:>-.XO#%%%%$@..:>:>:",
";>>;:>=X.XXXX.O=>>>:;;>>>;;:>>;;;>>:;;>>>;;:>>+.@$%%$$$$%%$X.->;:",
";>>:>O.@$%%$$#O.O->:;;>>>;:>>>:>>>>>;;>>>;;:>=.#%$$$$$$$$$%%OX;:;",
":::>O.#%$$$$$%%#XX=>>::>>>>>;;;--;;>>>>>:::>;X@%$$$$$$$$$$$%%X+>>",
">;>=.#%$$$$$$$$%%O.=>>>-+OOX.......XOO+->>>>=.$$$$$$$$$$$$$$%@X;>",
">>-.@%$$$$$$$$$$$&@.=O..XO@@###$$##@@OX..X->.@%$$$$$$$$$$%%%%%.=>",
":>+X%$$%$$$$$$$$$%$O.X@$%%%%%%%$%%%%%%%$@X.OX#%$$$$$$$$%$#@OXOOO>",
"::O@#@@#$%$$$$$%$@oO#%%$$$$$$$$$$$$$$$$%%%#OOO#%$$$$$$%#OoOO@@OX:",
">-XXooooo@$%$$%#oo#%%$$$$$$$$$$$$$$$$$$$$$%%$OoO%%$$$%#oo$&&&&#.:",
">-.#&&&&@oO$%%@oO%%$$$$$$$$$$$$$$$$$$$$$$$$$%%#oo$%$$$oo&&&&&&%X:",
">=X&&&&&&&oo%@o@%$$$$$$$$$$$$$$$$$$$$$$$$$$$$$%%Oo@%%oX&&&&&&&$X:",
">+X&&&&&&&&@oo#%$$$$$$$$$$$$$$$$$$$$$$$$$$$$$$$$%#o#@o&&&&&&&&$.:",
">=X&&&&&&&&$o@%$$$$$$$$$$$$$$$$$$$$$$$$$$$$$$$$$$%#oO@&&&&&&&&@X>",
">=.&&&&&&&%o@%$$$$$$$$$$$$$$$$$$$$$$$$$$$$$$$$$$$$%@o$&&&&&&&&X+>",
">-.&&&&&&&OO%$$$$$$$$$$$$$$$$$$$$$$$$$$$$$$$$$$$$$$%OO&&&&&&&%.->",
">;.@&&&&&$o#%$$$$$$$$$$$$$$$$$$$$$$$$$$$$$$$$$$$$$$$%o@&&&&&&.O>>",
">>=.&&&&&o@%$$$$$$$$$$$$$$$$$$$$$$$$$$$$$$$$$$$$$$$$%$o$&&&&..->:",
":>>O.&&&OO%$$$$$$$$$$$$$$$$$$$$$$$$$$$$$$$$$$$$$$$$$$%Oo&&&@.=>::",
";>>;X.#$o#%$$$$$$$$$$$$$$$$$$$$$$$$$$$$$$$$$$$$$$$$$$%$o@#..=>:;:",
";>>>;+XXO%$$$$$$$$$$$$$$$$$$$$$$$$$$$$$$$$$$$$$$$$$$$$%@OX+->>;;:",
":;;:>>-X#%$$$$$$$$$$$$$$$$$$$$$$$$$$$$$$$$$$$$$$$$$$$$$%.=>>;;:>:",
">;;>>>=X%$$$$$$$$$$$$$$$$$$$$$$$$$$$$$$$$$$$$$$$$$$$$$$%X+>:;;>>>",
">;;>>>O@%$$$$$$$$$$$$$$$$$$$$$$$$$$$$$$$$$$$$$$$$$$$$$$%#X;>;;>>>",
":>>:>;.#$$$$$$$$$$$$$$$$$$$$$$$$$$$$$$$$$$$$$$$$$$$$$$$$%X=>>>:;:",
";>>;>=X$$$$$$$$$$$$$$$$$$$$$$$$$$$$$$$$$$$$$$$$$$$$$$$$$%O+>>>:;:",
":>>:>+O$$$$$$$$$$$$$$$$$$$$$$$$$$$$$$$$$$$$$$$$$$$$$$$$$%@O:>>:;:",
">;;>>O@%$$$$$$$$$$$$$$$$$$$$$$$$$$$$$$$$$$$$$$$$$$$$$$$$%#X;:;>>>",
">;;>>.#%$$$$$$$$$$$$$$$$$$$$$$$$$$$$$$$$$$$%%%$$$$$$$$$$$$X;>;>>>",
":;;>>.#%$$$$$$$$%%%$$$$$$$$$$$$$$$$$$$$$$%$@@#%$$$$$$$$$$$X-:;:>:",
";>>>;.#%$$$$$$$%#@#%$$$$$$$##$$$##$$$$$$%#oOOo@%$$$$$$$$$$X->>;;:",
";>>>-.#%$$$$$$%@OOO@%$$$$#*--;;;--*#$$$$$OOOOOX%$$$$$$$$$#X;>>;;:",
":::>:.#%$$$$$$#OOOOO#$$$#->>>>>>>>>:$#$$$OOOOOo$$$$$$$$$$#X;>::::",
">;;>>.#%$$$$$%@OOOOO@%$#->>>>+.=>>>>>*#$%@OOOOo%$$$$$$$$$#X;:;>>>",
">;;>>X@%$$$$$%@OOOOO#%$*>>>>=.O.=>>>>>$$$%OOOO@%$$$$$$$$$#X;:;>>>",
"::::>+O$$$$$$$$OOOOO$$$;>>>>+XOX=>>>>>;#$%%@@#%$$$$$$$$$%@O:>::::",
";>>:>=X$$$$$$$%$@OO#%$$>>>>>-OOX->>>>>>#$$$%%%$$$$$$$$$$%X+>>>:;:",
";>>;>-.$$$$$$$$$%$$$$$$>>>>>>OXXO->>>>>$$$$$$$$$$$$$$$$$#X->>>;;:",
">;;>>;.#%$$$$$$$$$$$$$$>>>>>+.;=..=>>>>#$$$$$$$$$$$$$$$%@X>>;;>>>",
">;;>>>+X%$$$$$$$$$$$$$$->>>..=>>;X.;>>>#$$$$$$$$$$$$$$%%.=>:;;>>>",
">;;:>>-.#%$$$$$$$$$$$$$*>>>X+>>>>;+>>>*$$$$$$$$$$$$$$$%OX>>:;;:>>",
";>>:;:>OX%$$$$$$$$$$$$$#*;>>>>>>>>>>;*#$$$$$$$$$$$$$$%@.;:;:>>:;:",
";>>;;;>;.O%%$$$$$$$$$$$$$$**********$#$$$$$$$$$$$$$%%O.->;;:>>;;:",
":>>::::>:.O%%$$$$$$$$$$$$$$#$$$$#$$$$$$$$$$$$$$$$$%$X.->:;::>>:::",
">;;>>>;;>:..#%$$$$$$$$$$$$$$$$$$$$$$$$$$$$$$$$$$%%@.X>>;;>>:;;>>>",
">;;>>>;;;>>O.O$%%$$$$$$$$$$$$$$$$$$$$$$$$$$$%%$#O..+>>;;;>>:;;>>>",
"::::::::::>>=O.O#$%%%%%%%%%%%%%%%%%%%%%%%%$$@OXXO+;>:::::::::::::",
";>>:;;>>>;;:>:=O..XO@@@@@@@####@@@@@@@@@OOX.X+=->>>:;;>>>;;:>>:;:",
";>>:;;>>>;;:>>>:--+OXXXXXXXXXXXXXXXXXXOOO+=-;>>>:>>:;;>>>;;:>>;;:",
">;;:>>:;:>>:;;>>>>>>>>>>>>>::::>>:>>>>>>>>>>::>>:;;:>>:;:>>:;;:>:"
};
